<?xml version="1.0" standalone="no"?><!DOCTYPE svg PUBLIC "-//W3C//DTD SVG 1.1//EN" "http://www.w3.org/Graphics/SVG/1.1/DTD/svg11.dtd"><svg t="1494600884949" class="icon" style="" viewBox="0 0 1024 1024" version="1.1" xmlns="http://www.w3.org/2000/svg" p-id="77916" xmlns:xlink="http://www.w3.org/1999/xlink" width="200" height="200"><defs><style type="text/css"></style></defs><path d="M422.699 876.103c0 48.866 39.686 88.479 88.644 88.479 48.957 0 88.642-39.613 88.642-88.479 0-48.865-39.686-88.478-88.642-88.478-48.959 0-88.644 39.613-88.644 88.478" p-id="77917" fill="#46008c"></path><path d="M828.244 194.772C743.594 110.28 631.046 63.748 511.333 63.748s-232.26 46.531-316.909 131.024c-84.65 84.492-131.269 196.829-131.269 316.319 0 76.518 19.698 152.043 56.964 218.411 36.107 64.305 88.131 119.272 150.446 158.957 1.726 1.1 3.461 2.188 5.203 3.264 30.949 19.117 71.602 2.818 81.117-32.294l0.212-0.781c6.237-23.016-3.61-47.229-23.914-59.736a333.068 333.068 0 0 1-4.21-2.637C230.563 733.6 171.81 626.718 171.81 510.363c0-186.865 152.311-338.891 339.525-338.891S850.86 323.497 850.86 510.363c0 117.45-59.602 224.867-159.434 287.346l-0.828 0.517c-20.937 13.019-30.706 38.329-23.696 61.966l0.001 0.002c10.222 34.471 50.459 49.888 80.998 30.911l1.207-0.752c63.143-39.518 115.902-94.603 152.571-159.305 37.837-66.761 57.836-142.822 57.836-219.957-0.003-119.49-46.622-231.827-131.271-316.319z" p-id="77918" fill="#46008c"></path><path d="M496.797 218.843c-163.361 5.461-291.831 142.56-286.38 305.616 3.479 104.079 60.864 196.536 148.442 246.714 21.127 12.105 48.074 2.733 57.013-19.915l0.462-1.172c7.267-18.413-0.078-39.366-17.251-49.213-63.552-36.441-105.193-103.556-107.719-179.108-3.958-118.397 89.326-217.944 207.943-221.909s218.34 89.132 222.297 207.527c2.591 77.522-36.155 148.523-99.643 188.623-16.116 10.179-23.097 30.095-16.403 47.942l0.506 1.349c8.894 23.712 37.289 33.131 58.73 19.653 33.676-21.168 62.818-49.03 85.942-82.455 36.293-52.459 54.348-113.957 52.212-177.843-5.451-163.055-142.79-291.269-306.151-285.809z" p-id="77919" fill="#46008c"></path></svg>