<?xml version="1.0" standalone="no"?><!DOCTYPE svg PUBLIC "-//W3C//DTD SVG 1.1//EN" "http://www.w3.org/Graphics/SVG/1.1/DTD/svg11.dtd"><svg t="1494600101024" class="icon" style="" viewBox="0 0 1024 1024" version="1.1" xmlns="http://www.w3.org/2000/svg" p-id="56178" xmlns:xlink="http://www.w3.org/1999/xlink" width="200" height="200"><defs><style type="text/css"></style></defs><path d="M954.4704 570.6752L556.2368 744.448c-38.0928 16.0768-53.3504 16.0768-88.4736 0L69.5296 570.6752c-21.0944-10.8544-26.8288-51.2-26.8288-73.3184 26.624 14.7456 64 31.232 62.5664 30.3104L512 709.8368l406.7328-182.0672c0.7168-0.2048 36.9664-17.92 62.5664-30.3104 0 22.4256-7.168 64.3072-26.8288 73.216z m0-182.1696L556.2368 562.3808c-38.0928 16.0768-53.3504 16.0768-88.4736 0L69.5296 388.5056c-31.232-16.0768-30.3104-66.8672 0-85.8112L467.7632 98.5088c35.2256-17.1008 57.2416-18.0224 88.4736 0l398.2336 204.1856c30.3104 16.0768 29.3888 72.6016 0 85.8112zM512 891.904l406.7328-182.0672c0.7168-0.2048 36.9664-17.92 62.5664-30.3104 0 22.528-7.168 64.4096-26.8288 73.3184L556.2368 926.6176c-38.0928 16.0768-53.3504 16.0768-88.4736 0L69.5296 752.7424c-21.0944-10.8544-26.8288-51.2-26.8288-73.3184 26.624 14.7456 64 31.232 62.5664 30.3104L512 891.904z" fill="#888888" p-id="56179"></path></svg>