<?xml version="1.0" standalone="no"?><!DOCTYPE svg PUBLIC "-//W3C//DTD SVG 1.1//EN" "http://www.w3.org/Graphics/SVG/1.1/DTD/svg11.dtd"><svg t="1494135128404" class="icon" style="" viewBox="0 0 1024 1024" version="1.1" xmlns="http://www.w3.org/2000/svg" p-id="3763" xmlns:xlink="http://www.w3.org/1999/xlink" width="200" height="200"><defs><style type="text/css"></style></defs><path d="M505.16 0.048C222.456 3.832-3.712 236.12 0.072 518.896c3.792 282.616 236.064 508.824 518.768 505.056 282.696-3.792 508.872-236.096 505.088-518.848C1020.184 222.432 787.856-3.744 505.16 0.048L505.16 0.048zM561.92 170.696c52.024 0 67.392 30.16 67.392 64.704 0 43.128-34.552 83.024-93.504 83.024-49.312 0-72.728-24.816-71.336-65.76C464.48 218.088 493.424 170.696 561.92 170.696zM428.48 831.984c-35.576 0-61.6-21.576-36.736-116.512l40.792-168.288c7.08-26.992 8.232-37.784 0-37.784-10.632 0-56.816 18.632-84.16 37l-17.736-29.104C417.16 445.056 516.688 402.64 559.312 402.64c35.552 0 41.448 42.08 23.712 106.816l-46.76 176.968c-8.24 31.264-4.688 42.08 3.544 42.08 10.632 0 45.656-12.92 80.056-39.968l20.08 26.992C555.84 799.616 464.08 831.984 428.48 831.984L428.48 831.984z" p-id="3764" fill="#ffffff"></path></svg>