<?xml version="1.0" encoding="utf-8"?>
<!-- Generator: Adobe Illustrator 17.0.0, SVG Export Plug-In . SVG Version: 6.00 Build 0)  -->
<!DOCTYPE svg PUBLIC "-//W3C//DTD SVG 1.1//EN" "http://www.w3.org/Graphics/SVG/1.1/DTD/svg11.dtd">
<svg version="1.1" id="图层_1" xmlns="http://www.w3.org/2000/svg" xmlns:xlink="http://www.w3.org/1999/xlink" x="0px" y="0px"
	 width="18px" height="18px" viewBox="0 1 18 18" enable-background="new 0 1 18 18" xml:space="preserve">
<g id="Global_Nav_Small_Icons">
</g>
<g id="Global_Nav_Small_1_">
</g>
<g id="Bag">
	<path id="Account" fill="#666666" d="M9.875,3.875v0.953c0.796,0.135,1.531,0.446,2.164,0.896l0.673-0.675l1.238,1.238L13.276,6.96
		c0.45,0.633,0.761,1.367,0.896,2.164h0.954v1.75h-0.954c-0.134,0.797-0.446,1.531-0.896,2.164l0.674,0.673l-1.238,1.238
		l-0.673-0.675c-0.632,0.451-1.367,0.762-2.164,0.896v0.953h-1.75V15.17c-0.796-0.135-1.531-0.445-2.164-0.896L5.288,14.95
		L4.05,13.712l0.674-0.673c-0.45-0.633-0.761-1.367-0.896-2.164H2.875v-1.75h0.954c0.134-0.797,0.445-1.531,0.896-2.164L4.05,6.288
		L5.288,5.05l0.673,0.675c0.632-0.45,1.367-0.762,2.164-0.896V3.875H9.875 M10.75,3h-3.5v1.134c-0.403,0.12-0.791,0.28-1.16,0.48
		L5.288,3.812L2.812,6.288L3.614,7.09c-0.2,0.369-0.361,0.757-0.48,1.16H2v3.5h1.134c0.119,0.403,0.28,0.791,0.48,1.16l-0.803,0.802
		l2.477,2.478l0.802-0.804c0.369,0.2,0.757,0.361,1.16,0.48V17h3.5v-1.134c0.403-0.119,0.791-0.28,1.16-0.48l0.802,0.804
		l2.477-2.478l-0.62-0.62l-0.183-0.182c0.2-0.369,0.361-0.757,0.48-1.16H16v-3.5h-1.134c-0.12-0.403-0.28-0.791-0.48-1.16
		l0.803-0.802l-2.477-2.477L11.91,4.614c-0.369-0.2-0.757-0.36-1.16-0.48V3L10.75,3z M9,8.25c0.965,0,1.75,0.785,1.75,1.75
		S9.965,11.75,9,11.75S7.25,10.965,7.25,10S8.035,8.25,9,8.25 M9,7.375C7.55,7.375,6.375,8.55,6.375,10S7.55,12.625,9,12.625
		S11.625,11.45,11.625,10S10.45,7.375,9,7.375L9,7.375z"/>
</g>
<g id="Global_Nav_Large_Icons">
</g>
<g id="Global_Nav_Large_1_">
</g>
<g id="Guides">
</g>
<g id="NOTES">
</g>
</svg>
