<?xml version="1.0" standalone="no"?><!DOCTYPE svg PUBLIC "-//W3C//DTD SVG 1.1//EN" "http://www.w3.org/Graphics/SVG/1.1/DTD/svg11.dtd"><svg height="200" width="200" fill="#ffffff" xmlns:xlink="http://www.w3.org/1999/xlink" t="1491978196420" class="icon" style="" viewBox="0 0 1024 1024" version="1.1" xmlns="http://www.w3.org/2000/svg" p-id="17677"><defs><style type="text/css"></style></defs><path d="M927.211607 481.300814c-16.954137 0-30.699186 13.745049-30.699186 30.699186l0 384.89923L127.487579 896.89923 127.487579 512c0-16.954137-13.745049-30.699186-30.699186-30.699186s-30.699186 13.745049-30.699186 30.699186l0 405.987524c0 22.227234 19.280112 40.311101 42.97886 40.311101l805.863864 0c23.698748 0 42.97886-18.083867 42.97886-40.311101L957.910792 512C957.910792 495.04484 944.165744 481.300814 927.211607 481.300814z" p-id="17678"></path><path d="M305.743426 316.02356 481.950613 139.816372l0 476.024647c0 16.954137 13.745049 30.699186 30.699186 30.699186s30.699186-13.745049 30.699186-30.699186L543.348985 139.816372l176.206164 176.207188c5.993504 5.994528 13.850449 8.991792 21.707394 8.991792s15.712867-2.997264 21.707394-8.991792c11.989055-11.989055 11.989055-31.426757 0-43.415812L534.356171 43.99398c-5.757121-5.757121-13.56597-8.991792-21.707394-8.991792s-15.950274 3.234671-21.707394 8.991792L262.327614 272.607748c-11.988032 11.989055-11.988032 31.426757 0 43.415812C274.316669 328.012615 293.754371 328.012615 305.743426 316.02356z" p-id="17679"></path></svg>