<?xml version="1.0" encoding="iso-8859-1"?>
<!-- Generator: Adobe Illustrator 19.0.0, SVG Export Plug-In . SVG Version: 6.00 Build 0)  -->
<svg xmlns="http://www.w3.org/2000/svg" xmlns:xlink="http://www.w3.org/1999/xlink" version="1.1" id="Capa_1" x="0px" y="0px" viewBox="0 0 489.061 489.061" style="enable-background:new 0 0 489.061 489.061;" xml:space="preserve" width="512px" height="512px">
<g>
	<g>
		<g>
			<g>
				<path d="M0.08,468.245v-447.4c0.5-17.8,15.9-21.3,22.9-20.8l207,27c10.4,1,17.7,10.4,17.7,19.8v395.3c0,10.4-7.3,18.7-17.7,19.8      l-207,27C21.18,489.545,1.68,488.545,0.08,468.245z M40.68,43.745v401.6l166.5-21.8v-357.9L40.68,43.745z" fill="#fff"/>
			</g>
			<g>
				<path d="M79.18,268.445c-13.5,0-23.9-10.4-23.9-23.9s10.4-23.9,23.9-23.9s23.9,10.4,23.9,23.9S92.68,268.445,79.18,268.445z" fill="#fff"/>
			</g>
			<g>
				<path d="M468.28,464.045h-168.6c-11.4,0-20.8-9.4-20.8-20.8v-166.4c0-11.4,9.4-20.8,20.8-20.8h168.5c11.4,0,20.8,9.4,20.8,20.8      v167.5C489.08,454.645,479.68,464.045,468.28,464.045z M320.48,423.445h128v-126.9h-128V423.445z" fill="#fff"/>
			</g>
		</g>
	</g>
</g>
</svg>
