<?xml version="1.0" standalone="no"?><!DOCTYPE svg PUBLIC "-//W3C//DTD SVG 1.1//EN" "http://www.w3.org/Graphics/SVG/1.1/DTD/svg11.dtd"><svg t="1494512820448" class="icon" style="" viewBox="0 0 1024 1024" version="1.1" xmlns="http://www.w3.org/2000/svg" p-id="12840" xmlns:xlink="http://www.w3.org/1999/xlink" width="200" height="200"><defs><style type="text/css"></style></defs><path d="M952.934 79.72l-45.226 0c-17.457 0-31.535 14.414-31.535 32.159l0 75.505c0 55.791-44.552 100.998-99.323 100.998-54.872 0-99.326-45.207-99.326-100.998l0-75.505c0-17.745-14.176-32.159-31.632-32.159L382.733 79.72c-17.451 0-31.629 14.414-31.629 32.159l0 75.505c0 55.791-44.454 100.998-99.223 100.998-54.875 0-99.329-45.207-99.329-100.998l0-75.505c0-17.745-14.175-32.159-31.628-32.159L71.069 79.72C31.824 79.72 0 112.074 0 151.985l0 799.744C0 991.636 31.824 1024 71.069 1024l881.865 0c39.245 0 71.065-32.365 71.065-72.271L1023.999 151.984C1024 112.074 992.179 79.72 952.934 79.72L952.934 79.72zM929.31 895.542c0 0.685 0 1.373-0.1 2.061-0.963 16.275-13.883 29.216-29.896 30.004-0.579 0.101-1.062 0.101-1.638 0.101-0.48 0-1.064 0-1.543-0.101L127.968 927.607c-0.579 0.101-1.062 0.101-1.64 0.101-0.485 0-1.062 0-1.638-0.101-16.104-0.789-29.028-14.022-29.896-30.396L94.794 367.316c0.868-17.063 14.657-30.493 31.534-30.493l771.35 0c16.781 0 30.57 13.234 31.533 30.001 0.1 0.688 0.1 1.375 0.1 2.06 0 0.782 0 1.375-0.1 2.057l0 522.539C929.31 894.17 929.31 894.855 929.31 895.542L929.31 895.542zM776.369 242.982c30.277 0 54.672-24.909 54.672-55.598l0.387 0L831.428 48.434C827.958 21.079 805.01 0 777.234 0c-30.184 0-54.672 24.906-54.672 55.596l-0.392 0 0 138.946C725.647 221.899 748.596 242.982 776.369 242.982L776.369 242.982zM251.883 242.982c30.18 0 54.675-24.909 54.675-55.598l0.385 0L306.943 48.434C303.471 21.079 280.517 0 252.744 0c-30.278 0-54.673 24.906-54.673 55.596l-0.387 0 0 138.946C201.059 221.899 224.11 242.982 251.883 242.982L251.883 242.982zM503.637 842.03l-96.292 0c12.819-118.107 59.039-231.73 138.66-340.871L336.091 501.159l0-77.033 313.91 0 0 67.404C561.412 603.227 512.604 720.071 503.637 842.03z" p-id="12841" fill="#ffffff"></path></svg>