<?xml version="1.0" standalone="no"?><!DOCTYPE svg PUBLIC "-//W3C//DTD SVG 1.1//EN" "http://www.w3.org/Graphics/SVG/1.1/DTD/svg11.dtd"><svg t="1494509525531" class="icon" style="" viewBox="0 0 1024 1024" version="1.1" xmlns="http://www.w3.org/2000/svg" p-id="3609" xmlns:xlink="http://www.w3.org/1999/xlink" width="200" height="200"><defs><style type="text/css"></style></defs><path d="M512.00208 411.955126l-391.155776-391.155776c-27.711134-27.711134-72.477735-27.679135-100.092872-0.031999-26.815162 26.815162-27.615137 72.445736 0.031999 100.092872l391.155776 391.155776-391.155776 391.155776c-27.711134 27.711134-27.679135 72.477735-0.031999 100.092872 26.815162 26.815162 72.445736 27.615137 100.092872-0.063998l391.155776-391.155776 391.155776 391.155776c27.711134 27.711134 72.477735 27.679135 100.092872 0.063998 26.815162-26.815162 27.615137-72.445736-0.063998-100.092872l-391.155776-391.155776 391.155776-391.155776c27.711134-27.711134 27.679135-72.477735 0.063998-100.092872-26.815162-26.815162-72.445736-27.615137-100.092872 0.031999l-391.155776 391.155776z" p-id="3610" fill="#ffffff"></path></svg>