<?xml version="1.0" encoding="utf-8"?>
<!-- Generator: Adobe Illustrator 17.0.0, SVG Export Plug-In . SVG Version: 6.00 Build 0)  -->
<!DOCTYPE svg PUBLIC "-//W3C//DTD SVG 1.1//EN" "http://www.w3.org/Graphics/SVG/1.1/DTD/svg11.dtd">
<svg version="1.1" id="Capa_1" xmlns="http://www.w3.org/2000/svg" xmlns:xlink="http://www.w3.org/1999/xlink" x="0px" y="0px"
	 width="512px" height="512px" viewBox="0 0 512 512" enable-background="new 0 0 512 512" xml:space="preserve">
<g>
	<g>
		<path fill="#ffffff" d="M471.855,237.734v5.898c0,53.674-43.667,97.343-97.343,97.343H233.126v12.141
			c0,25.668,20.807,46.474,46.473,46.474h118.189l53.517,52.65c1.907,1.875,4.438,2.872,7.011,2.872
			c1.302,0,2.613-0.256,3.861-0.777c3.715-1.558,6.132-5.193,6.132-9.219V399.5c24.37-1.44,43.69-21.652,43.69-46.384v-69.348
			C512,260.252,494.525,240.824,471.855,237.734z"/>
		<path fill="#ffffff" d="M444.97,241.692V131.04c0-40.954-33.201-74.154-74.154-74.154H74.154C33.2,56.886,0,90.086,0,131.04
			v110.652c0,39.463,30.828,71.711,69.711,74.009v72.785c0,6.426,3.857,12.225,9.783,14.708c1.992,0.836,4.083,1.239,6.16,1.239
			c4.107,0,8.145-1.586,11.187-4.58l85.391-84.008h188.581C411.77,315.847,444.97,282.647,444.97,241.692z"/>
	</g>
</g>
</svg>
