<?xml version="1.0" standalone="no"?><!DOCTYPE svg PUBLIC "-//W3C//DTD SVG 1.1//EN" "http://www.w3.org/Graphics/SVG/1.1/DTD/svg11.dtd"><svg t="1494596292062" class="icon" style="" viewBox="0 0 1024 1024" version="1.1" xmlns="http://www.w3.org/2000/svg" p-id="19259" xmlns:xlink="http://www.w3.org/1999/xlink" width="200" height="200"><defs><style type="text/css"></style></defs><path d="M1013.754942 106.102815c-8.406294-41.659381-45.297171-73.077316-89.496141-73.077316L875.742891 33.025499 875.742891 32.646186l-636.891441 0.36125c-25.222493 0-45.680096 20.414252-45.680096 45.578946 0 25.168306 20.45399 45.586171 45.680096 45.586171l683.590263-0.382925 0.3757 456.880435c0 25.186368 20.41064 45.597008 45.640358 45.597008 25.222493 0 45.680096-20.41064 45.680096-45.597008L1013.754942 106.102815 1013.754942 106.102815zM1013.754942 106.102815" p-id="19260" fill="#999999"></path><path d="M877.25653 247.413081c-6.592817-43.747407-43.935257-77.419544-89.532266-77.607394l-690.562393 0.36125C48.801298 172.273026 10.165582 211.678205 9.862132 260.443378l0.3757 460.355662c2.160277 48.447273 41.854456 87.129951 90.897792 87.129951l48.483398 0 0 0.242038 134.757186-0.242038c25.226106 0 45.676483-20.39619 45.676483-45.578946s-20.450377-45.578946-45.676483-45.578946l-95.86137 0.169788 4.996091-0.169788c-74.721005 0-89.228815-0.762238-92.03573-43.462019L101.218712 317.900233c1.434164-45.864334 10.039145-54.99674 59.270331-56.589854l555.389769-0.30345c61.99777 0.567163 69.533451 7.759656 70.180089 76.335793l0.191463 149.015734c-0.039738 0.639413-0.343188 1.177676-0.343188 1.817089l0.2312 157.06439c-0.610513 72.979778-7.806618 71.527552-91.204854 71.527552l4.392803 0.151725-232.247795 0.2601-0.751401 0-1.141551 0c-14.392211 0-26.736132 7.098568-35.066563 17.556763l-180.473407 178.797206c-17.838538 17.809638-17.838538 46.666309 0 64.468722 17.838538 17.798801 46.738559 17.798801 64.573485 0l171.2254-169.675637 253.337586-0.289 0-0.111988 48.523136 0c46.922797 0 85.103337-35.449488 90.251154-80.898384l-0.30345-189.808114c0.04335-0.6069 0.379313-1.094588 0.379313-1.705101L877.25653 247.413081 877.25653 247.413081zM877.25653 247.413081" p-id="19261" fill="#999999"></path></svg>