<?xml version="1.0" encoding="utf-8"?>
<!-- Generator: Adobe Illustrator 21.0.0, SVG Export Plug-In . SVG Version: 6.00 Build 0)  -->
<svg version="1.1" id="Capa_1" xmlns="http://www.w3.org/2000/svg" xmlns:xlink="http://www.w3.org/1999/xlink" x="0px" y="0px"
	 viewBox="0 0 512 512" style="enable-background:new 0 0 512 512;" xml:space="preserve">
<style type="text/css">
	.st0{fill:#FFFFFF;}
</style>
<g>
	<g>
		<path class="st0" d="M5.1,449.4c-3.4,3.4-5.1,7.3-5.1,11.8s1.7,8.4,5.1,11.8l25.6,25.7c3.4,3.4,7.4,5.1,11.8,5.1s8.4-1.7,11.8-5.1
			L256,297l201.6,201.6c3.4,3.4,7.4,5.1,11.8,5.1c4.5,0,8.4-1.7,11.8-5.1l25.6-25.7c3.4-3.4,5.1-7.4,5.1-11.8s-1.7-8.4-5.1-11.8
			l-239-239c-3.4-3.4-7.3-5.1-11.8-5.1s-8.4,1.7-11.8,5.1L5.1,449.4z"/>
		<path class="st0" d="M460.1,283.9c2.8-2.8,4.2-6,4.2-9.6c0-3.6-1.4-6.8-4.2-9.6L265.6,70.2c-2.8-2.8-5.9-4.2-9.6-4.2
			c-3.7,0-6.8,1.4-9.6,4.2L51.8,264.7c-2.8,2.8-4.2,6-4.2,9.6c0,3.6,1.4,6.8,4.2,9.6l20.8,20.9c2.8,2.8,6,4.2,9.6,4.2
			s6.8-1.4,9.6-4.2l164.1-164.1L420,304.8c2.8,2.8,6,4.2,9.6,4.2c3.7,0,6.8-1.4,9.6-4.2L460.1,283.9z"/>
	</g>
</g>
</svg>
