<?xml version="1.0" encoding="utf-8"?>
<!-- Generator: Adobe Illustrator 17.0.0, SVG Export Plug-In . SVG Version: 6.00 Build 0)  -->
<!DOCTYPE svg PUBLIC "-//W3C//DTD SVG 1.1//EN" "http://www.w3.org/Graphics/SVG/1.1/DTD/svg11.dtd">
<svg version="1.1" id="图层_1" xmlns="http://www.w3.org/2000/svg" xmlns:xlink="http://www.w3.org/1999/xlink" x="0px" y="0px"
	 width="28.01px" height="28.01px" viewBox="0 0 28.01 28.01" enable-background="new 0 0 28.01 28.01" xml:space="preserve">
<g>
	<g>
		<path d="M2.738,5.283c6.667,6.667,13.333,13.333,20,20c1.643,1.643,4.189-0.903,2.546-2.546c-6.667-6.667-13.333-13.333-20-20
			C3.64,1.095,1.095,3.64,2.738,5.283L2.738,5.283z"/>
	</g>
</g>
<g>
	<g>
		<path d="M22.738,2.738c-6.667,6.667-13.333,13.333-20,20c-1.643,1.643,0.903,4.189,2.546,2.546c6.667-6.667,13.333-13.333,20-20
			C26.926,3.64,24.381,1.095,22.738,2.738L22.738,2.738z"/>
	</g>
</g>
</svg>
