<?xml version="1.0" encoding="utf-8"?>
<!-- Generator: Adobe Illustrator 17.0.0, SVG Export Plug-In . SVG Version: 6.00 Build 0)  -->
<!DOCTYPE svg PUBLIC "-//W3C//DTD SVG 1.1//EN" "http://www.w3.org/Graphics/SVG/1.1/DTD/svg11.dtd">
<svg version="1.1" id="Layer_1" xmlns="http://www.w3.org/2000/svg" xmlns:xlink="http://www.w3.org/1999/xlink" x="0px" y="0px"
	 width="20px" height="20px" viewBox="0 0 20 20" enable-background="new 0 0 20 20" xml:space="preserve">
<path fill="#FFFFFF" d="M9.669,16.982c-2.102,0-4.327-0.575-6.018-1.564c-1.715-1.004-2.833-1.909-3.469-2.492
	c-0.229-0.21-0.245-0.567-0.034-0.796c0.21-0.229,0.566-0.245,0.796-0.034c0.595,0.546,1.647,1.397,3.276,2.35
	c2.86,1.673,8.459,2.467,11.394-1.143c0.567-0.697,0.787-1.263,1.019-1.863c0.309-0.797,0.654-1.686,1.8-2.9
	c-0.146-0.099-0.272-0.22-0.348-0.368c-0.046-0.09-0.097-0.192-0.152-0.303c-0.644-1.302-1.842-3.724-4.62-3.724
	c-1.496,0-2.783,0.961-3.828,2.856c-0.15,0.272-0.493,0.372-0.765,0.221C8.449,7.072,8.35,6.729,8.5,6.457
	c1.258-2.282,2.878-3.439,4.815-3.439c1.508,0,2.818,0.57,3.895,1.694c0.868,0.906,1.389,1.96,1.734,2.658
	c0.042,0.086,0.082,0.165,0.119,0.238c0.093,0.061,0.336,0.146,0.499,0.183c0.204,0.046,0.365,0.201,0.42,0.403
	c0.054,0.202-0.007,0.417-0.16,0.559c-1.464,1.361-1.791,2.204-2.137,3.095c-0.254,0.655-0.517,1.332-1.195,2.167
	c-1.904,2.342-4.568,2.904-6.468,2.963C9.904,16.98,9.786,16.982,9.669,16.982z"/>
<path fill="none" d="M2.737,11.453c1.475,1.1,3.429,1.249,4.948,1.144c1.399-0.097,2.381-1.413,2.074-2.781
	C9.425,8.33,8.725,6.5,7.25,5.4C4.453,3.314-0.072,4.649-0.072,4.649S-0.061,9.367,2.737,11.453z"/>
<g>
	<path fill="#FFFFFF" d="M7.888,13.189C7.887,13.189,7.887,13.189,7.888,13.189c-1.836,0-3.346-0.432-4.488-1.284
		c-2.989-2.229-3.035-7.05-3.036-7.254C0.364,4.4,0.528,4.18,0.768,4.109C0.83,4.091,2.293,3.665,4.1,3.665
		c1.835,0,3.345,0.432,4.487,1.284c1.645,1.227,2.388,3.257,2.721,4.744c0.182,0.813,0.001,1.661-0.496,2.327
		c-0.497,0.667-1.259,1.082-2.089,1.139C8.441,13.179,8.16,13.189,7.888,13.189z M1.512,5.084c0.084,1.168,0.5,4.38,2.562,5.918
		c0.943,0.703,2.227,1.06,3.814,1.06c0,0,0,0,0,0c0.246,0,0.501-0.009,0.758-0.027c0.503-0.035,0.963-0.286,1.264-0.689
		c0.3-0.403,0.41-0.916,0.299-1.408C9.917,8.638,9.282,6.872,7.914,5.852C6.97,5.148,5.687,4.792,4.1,4.792
		C3.009,4.792,2.041,4.966,1.512,5.084z"/>
	<path fill="#FFFFFF" d="M15.038,8.477h-0.451c-0.311,0-0.563-0.252-0.563-0.563c0-0.311,0.252-0.563,0.563-0.563h0.451
		c0.311,0,0.563,0.252,0.563,0.563C15.602,8.225,15.349,8.477,15.038,8.477z"/>
</g>
</svg>
