<?xml version="1.0" encoding="utf-8"?>
<!-- Generator: Adobe Illustrator 17.0.0, SVG Export Plug-In . SVG Version: 6.00 Build 0)  -->
<!DOCTYPE svg PUBLIC "-//W3C//DTD SVG 1.1//EN" "http://www.w3.org/Graphics/SVG/1.1/DTD/svg11.dtd">
<svg version="1.1" id="Capa_1" xmlns="http://www.w3.org/2000/svg" xmlns:xlink="http://www.w3.org/1999/xlink" x="0px" y="0px"
	 width="20px" height="20px" viewBox="0 0 20 20" enable-background="new 0 0 20 20" xml:space="preserve">
<path fill="#FFFFFF" d="M13.038,16.096c-1.362,0-1.853-0.908-2.03-1.538c-0.084-0.299,0.126-0.606,0.435-0.642
	c9.204-1.053,7.271-10.442,6.692-12.627c-0.051-0.192-0.296-0.245-0.421-0.09c-1.208,1.492-5.86,7.139-8.081,8.428
	c-1.498,1.512-3.759,1.214-4.988,0.983c-0.559-0.105-1.135-0.105-1.674,0.074c-0.085,0.028-0.162,0.058-0.225,0.089
	c-1.257,0.621-1.564,1.768-1.419,1.774c2.203,0.103,3.729,1.027,3.86,1.497c0.089,0.318,0.209,0.629,0.404,0.895
	c0.007,0.01,0.015,0.02,0.022,0.03c0.548,0.73,1.432,1.127,2.344,1.127c0.445,0,0.812,0.337,0.896,0.774
	c0.041,0.209,0.095,0.407,0.173,0.615c0.576,1.536,2.094,2.514,3.735,2.514h0.631c3.371,0,3.194-2.129,3.194-2.129
	C16.587,16.052,13.038,16.096,13.038,16.096z"/>
<circle fill="none" cx="3.634" cy="11.661" r="0.532"/>
<path opacity="0.9" fill="#FFFFFF" d="M4.323,10.565c0.108,0.012,0.216,0.024,0.323,0.044c1.229,0.231,3.49,0.529,4.988-0.983l0,0
	c0.592-1.029,0.896-2.25,0.92-3.467c0.033-1.69-0.155-4.472-1.57-6.076C8.859-0.057,8.626-0.014,8.565,0.165
	C8.195,1.248,7.085,4.419,4.876,6.87C4.222,7.596,3.667,8.387,3.812,9.354C3.866,9.717,4.044,10.153,4.323,10.565z"/>
</svg>
