<?xml version="1.0" standalone="no"?><!DOCTYPE svg PUBLIC "-//W3C//DTD SVG 1.1//EN" "http://www.w3.org/Graphics/SVG/1.1/DTD/svg11.dtd"><svg t="1494245670221" class="icon" style="" viewBox="0 0 1024 1024" version="1.1" xmlns="http://www.w3.org/2000/svg" p-id="6438" xmlns:xlink="http://www.w3.org/1999/xlink" width="200" height="200"><defs><style type="text/css"></style></defs><path d="M502.005 425.101c0.057-0.085 0.136-0.166 0.188-0.25-0.21-1.006-0.379-1.891-0.459-2.516 0.096 0.915 0.19 1.838 0.271 2.766m196.212 214.244c0.007 0 0.007-0.011 0.007-0.017-0.024-0.012-0.114-0.012-0.129-0.037 0.024 0.025 0.093 0.025 0.122 0.054m5.027 0.629c-1.215-0.196-3.947 0.158-5.027-0.629-0.663 2.3 0.339 3.163 5.027 0.629M512.123 0.998C229.969 0.998 1.253 229.716 1.253 511.861c0 282.148 228.716 510.869 510.87 510.869 282.141 0 510.863-228.721 510.863-510.869C1022.986 229.715 794.264 0.998 512.123 0.998m326.308 199.565c-17.598 0.53-29.854 0.566-43.998 10.326-5.694 3.936-9.563 9.155-16.796 11.182-6.486 1.825-13.483 0.226-19.917 2.409-23.208 7.876-19.533 57.592-50.116 50.08-14.366-3.521-24.493-20.498-31.722-31.583-6.37-9.755-17.969-17.826-10.133-30.029-3.574 0.915-7.384-0.131-10.902 0.538 4.897-10.757 21.332-9.816 24.063-15.315 6.807-13.782-18.748-15.219-25.979-17.127 8.721-9.299 13.139 3.125 21.744 1.016 8.272-2.034-4.367-12.933-9.324-14.154-1.782-0.442-30.917 8.047-14.056-7.041a197075.762 197075.762 0 0 1-62.438-39.813c-3.508 14.766 27.704 23.152 37.894 28.356-1.581 6.095-11.062 14.975-18.322 12.374-6.843-2.455-4.065-13.781-14.393-12.645-7.369 17.14 15.591 12.13 17.725 22.636 2.424 11.967-8.685 6.894-12.951 6.689-1.017-0.056-8.976-8.294-9.406-2.055-0.52 7.409 12.692 4.519 13.626 12.001-15.39 0.621-23.242-4.933-35.771-13.257-14.622-9.705-22.121-8.828-40.037-8.828 5.356-2.202 12.736-3.836 17.315-7.375 2.505-1.939 12.323-11.48 12.976-13.61 2.77-9.196-0.154-8.497-8.946-14.523-7.824-5.351-17.305-14.953-26.778-16.84-34.333-6.855-10.587 30.99-36.646 36.209 0.447 0.022 0.927 0.047 1.313 0.047h-1.492c0.066-0.005 0.119-0.035 0.18-0.047-6.029-0.214-17.328-1.685-21.212 1.503-2.744 2.241-2.97 11.234-6.04 14.484-5.451 5.821-13.583 6.98-20.093 11.174-6.351 4.095-20.356 14.604-24.091 21.735-13.752 26.272 30.985 34.428 47.945 42.108 7.662 3.472 30.055 8.22 34.23 14.018 5.59 7.788-4.825 15.089 6.859 20.562 3.728 1.744 11.424 2.101 14.634-1.514 5.223-5.882-2.119-7.21-3.368-14.008-2.429-13.087 1.566-7.889 8.146-12.748 13.416-9.902 10.391-10.507 5.566-26.29-2.239-7.34-10.693-27.845-3.257-33.27 9.692-7.067 30.372 3.834 37.811 4.751 8.652 1.058 13.559 13.044 18.277 17.949 3.133 3.256 8.732 10.163 14.206 9.415 8.686-1.186 5.049-8.78 10.089-12.282 13.511-9.371 17.071 3.359 22.455 16.095 5.066 11.957 9.856 16.395 18.876 24.069 4.191 3.569 22.542 16.313 20.813 24.17-1.177 5.291-22.14 13.316-27.75 15.093-20.491 6.491-58.932-10.626-63.062 21.874 7.95-2.964 30.565-21.439 37.345-12.678 3.096 3.97-2.446 9.755-1.146 13.701 3.87 11.832 12.998 7.71 22.564 5.796-0.656 0.408-1.322 0.764-2.031 1.08 13.075-6.715 11.714-5.319 17.714-16.212 1.956-3.564 4.874-12.177 7.63-14.726 9.504-8.737 10.964-2.72 16.851 4.022 1.544 1.775 16.096 22.734 10.913 21.687-16.925-3.394-33.176-2.94-47.219 6.316-8.088 5.346-15.739 12.549-25.399 16.101-2.32 0.843-19.463 2.472-17.434-0.453 2.956-4.262 13.142-7.084 17.157-11.687-11.134-4.586-20.428 5.542-29.176 11.463-9.286 4.394-11.445 12.583-19.351 19.758-3.455 3.126-9.982 3.666-13.367 7.783-3.285 3.999-3.699 10.279-6.816 14.075-2.181 2.659-7.786 1.052-10.067 5.056-2.975 5.23 2.72 10.089 1.472 13.855-2.285 6.85-15.31 12.661-20.319 17.589a77.277 77.277 0 0 0 1.992-1.977c-5.022 5.264-11.375 9.14-15.293 15.236 1.798 8.602 7.471 29.124 5.893 33.846-5.221 15.528-15.366-8.449-19.476-14.646-14.127-21.288-42.37-7.042-61.666-5.278-24.667 2.259-48.838 34.282-33.619 60.275 7.306 12.462 19.594 17.286 33.694 14.402 12.55-2.566 16.314-20.12 28.128-20.443 21.71-0.576 0.48 21.281-1.402 29.296-1.737 7.429 2.708 8.12 10.355 9.961 5.647 1.349 13.645-2.42 18.543 0.806 3.08 2.035 2.935 13.185 7.175 9.671-8.354 6.922-6.401 23.33 2.159 29.263 9.494 6.583 20.673 0.485 30.613 3.013 18.764 4.793 9.806-1.429 26.285-11.376 11.116-6.699 12.943 1.265 20.544 1.296 5.177 0.022 8.461-7.436 17.107-5.266 7.05 1.771 9.833 7.214 18.252 8.47 3.451 0.511 7.015-1.301 10.307-0.938 15.574 1.729 27.49 11.678 39.761 20.675 10.11 7.405 16.806 5.904 28.62 9.278 8.624 2.463 24.551 14.949 23.735 25.908-0.148 1.961-7.692 11.819-8.98 16.263 2.212 1.528 17.563-1.903 22.06-2.228-1.481 1.719-11.939 9.069-11.939 5.173 0 1.992 7.402 6.099 9.201 7.377 5.457-17.711 14.413-6.315 25.201-1.927 9.167 3.731 20.447 3.937 30.226 6.265 8.302 1.978 26.602 7.578 32.755 14.359 7.402 8.169 2.286 21.429-3.196 29.554-7.163 10.646-17.97 14.744-22.438 27.269-3.534 9.928-0.885 19.957-2.902 30.968-2.729 14.896-4.915 9.678-14.512 18.766-8.068 7.657-0.136 6.328-11.121 11.205-11.047 4.911-20.768 3.445-28.412 15.563 0.306-0.761 0.556-1.527 0.77-2.322-3.229 4.511-4.842 13.756-6.369 16.787-3.856 7.742-9.173 12.624-15.267 19.07-2.337 2.467-23.81 31.812-25.054 29.453-1.594-3.064-18.528 3.075-19.336-1.294 0.675 3.675-0.158 2.443 4.043 4.557-3.89 24.115-14.093 27.71-37.771 27.954 2.035 11.59-8.579 9.282-13.514 15.512-2.887 3.636-4.261 13.865-6.264 18.576-1.248 2.964-10.489 14.825-10.489 17.171-0.011 2.168 3.106 5.337 6.03 8.378-16.694 3.299-33.717 5.603-51.005 7.008 3.24-4.076 4.019-7.661-6.293-8.152 2.76-7.494 9.241-11.767 11.982-19.031 1.304-3.427 0.227-4.779 1.325-8.168 3.771-11.722 2.138-7.296 0.013-16.402-4.982-21.327 1.771-27.163 7.584-46.687 5.969-20.066 5.416-46.087 9.238-67.699 1.814-10.344 4.783-31.869 1.193-41.651-4.05-11.007-21.853-19.679-30.008-27.089-11.547-10.517-17.682-21.885-26.256-34.885-4.355-6.607-9.314-13.083-12.709-20.262-7.26-15.354 0.006-6.213 1.228-15.274 1.17-8.754-1.047-16.582 2.43-25.772 3.846-10.158 13.445-16.491 16.6-26.73 2.837-9.123 0.678-20.587-8.69-23.627-5.222-1.704-10.987 2.224-16.228 1.362-7.315-1.186-15.596-6.646-21.335-11.008-8.014-6.112-11.017-16.03-19.55-21.821-7.144-4.824-12.227-1.931-19.866-4.196-7.974-2.346-12.894-12.179-19.324-15.254-9.647-4.617-15.083 2.013-25.268 0.672-8.665-1.135-21.875-10.733-29.966-14.364-16.458-7.362-26.479-15.495-33.055-32.193-5.638-14.325-13.854-21.003-23.526-32.93-9.799-12.092-12.87-22.389-27.983-25.608-1.768-0.389 3.7 12.686 4.266 13.738 5.395 9.993 13.504 19.125 20.025 28.434 9.597 13.709 5.507 16.283-4.253 3.027-11.164-15.168-24.112-30.25-33.794-46.31-3.658-6.069-2.954-9.995-8.991-15.755-5.83-5.572-13.464-8.286-19.34-13.578-21.128-19.008-24.975-44.379-22.565-71.464 0.787-8.833 3.977-15.896 2.568-24.384-1.159-7.047-5.322-12.876-10.52-18.07-1.673-2.668-5.882-9.238-6.124-9.659-4.795-7.967-8.528-15.806-16.15-22.345-4.373-3.767-15.688-12.564-26.337-19.939 47.856-59.69 110.479-106.995 182.322-136.362 0.574 3.608 2.122 7.216 4.447 10.666 5.909 8.759 11.535 8.07 23.065 10.489-1.237 13.385-16.88 13.49-27.465 12.042-12.639-1.739-25.934-5.934-36.883 5.139 6.045 3.638 22.643 17.796 20.438 3.003 12.105-0.604 23.809-0.966 35.657 0.482 4.743 0.581 20.646 5.921 24.955 3.482 1.81-1.024 3.738-9.94 5.65-12.69-3.376 0.022-6.995-1.687-10.362-1.363 7.843-10.043 15.659-2.159 25.641 2.454-10.988 6.679-4.468 22.684 6.276 9.684 8.823-10.695-2.16-18.448-13.367-24.681 11.3-14.131 18.271-15.413 28.902 0.542 1.753-9.84 9.693-5.897 17.991-5.174v-2.461c-3.653 0.09-7.549-2.013-11.169-1.633 8.455-13.489 3.058-16.57 15.145-20.976 9.624-3.501 37.086-0.236 40.468-9.284-19.217 3.731-42.431 4.627-59.769 13.364-7.478 3.766-16.387 15.665-23.85 7.936-7.652-7.936 5.474-20.688 12.187-24.573h-1.604c30.407-6.469 61.894-9.938 94.203-9.938 20.878 0 41.39 1.546 61.526 4.293-6.968 3.658-1.814 6.13-6.885 9.874-9.693 7.125-26.903 13.077-38.439 17.582 14.665-0.038 50.159 13.747 56.985-6.82-4.73-0.723-9.453-1.452-14.181-2.181 8.835-5.859 18.689-10.598 29.037-14.077 93.375 18.5 176.425 65.862 239.611 132.314a17.9 17.9 0 0 0-1.345-0.023m82.683 179.366c0.844-1.799 2.806-2.387 3.616-3.868 1.707-3.118 1.326-5.233 3.427-7.901 2.248-2.889 5.287-3.598 7.798-5.852a9.144 9.144 0 0 0 2.04-2.614 448.328 448.328 0 0 1 17.911 65.102c-0.137 0.16-0.211 0.402-0.377 0.531-1.095 0.874-8.256 1.935-9.725 1.987-5.184 0.197-9.035-3.242-12.758-6.482-3.791-3.284-8.244-7.692-10.938-11.949-2.877-4.548-1.102-9.222-0.892-14.419 0.17-4.369-1.955-10.602-0.102-14.535m5.848 234.228c-8.777-7.621-19.132-17.843-25.366-27.714-6.665-10.529-2.56-21.365-2.072-33.424 0.407-10.139-4.546-24.571-0.24-33.704 1.979-4.167 6.512-5.548 8.383-8.961 3.965-7.234 3.089-12.12 7.957-18.34 5.222-6.68 12.244-8.32 18.063-13.555 6.097-5.493 5.926-9.824 9.791-16.859 2.819-5.146 9.458-13.725 15.74-18.208a453.856 453.856 0 0 1 5.183 68.47 451.14 451.14 0 0 1-15.275 116.459c-8.461-2.184-15.416-8.281-22.164-14.164m0 0z" p-id="6439" fill="#ffffff"></path></svg>