<?xml version="1.0" encoding="utf-8"?>
<!-- Generator: Adobe Illustrator 17.0.0, SVG Export Plug-In . SVG Version: 6.00 Build 0)  -->
<!DOCTYPE svg PUBLIC "-//W3C//DTD SVG 1.1//EN" "http://www.w3.org/Graphics/SVG/1.1/DTD/svg11.dtd">
<svg version="1.1" id="Capa_1" xmlns="http://www.w3.org/2000/svg" xmlns:xlink="http://www.w3.org/1999/xlink" x="0px" y="0px"
	 width="512px" height="512px" viewBox="0 0 512 512" enable-background="new 0 0 512 512" xml:space="preserve">
<g>
	<g id="keyboard-control">
		<path fill="#999999" d="M64,192c-35.2,0-64,28.8-64,64s28.8,64,64,64s64-28.8,64-64S99.2,192,64,192z M448,192
			c-35.2,0-64,28.8-64,64s28.8,64,64,64s64-28.8,64-64S483.2,192,448,192z M256,192c-35.2,0-64,28.8-64,64s28.8,64,64,64
			s64-28.8,64-64S291.2,192,256,192z"/>
	</g>
</g>
</svg>
