<?xml version="1.0" standalone="no"?><!DOCTYPE svg PUBLIC "-//W3C//DTD SVG 1.1//EN" "http://www.w3.org/Graphics/SVG/1.1/DTD/svg11.dtd"><svg t="1494172081955" class="icon" style="" viewBox="0 0 1127 1024" version="1.1" xmlns="http://www.w3.org/2000/svg" p-id="6414" xmlns:xlink="http://www.w3.org/1999/xlink" width="220.1171875" height="200"><defs><style type="text/css"></style></defs><path d="M563.955661 15.730642C550.041277 15.730642 539.035479 19.782226 531.073838 28.059566 522.967388 36.16576 516.697288 46.081915 512.423757 57.358188L386.146724 343.998147 47.197763 373.911695C39.236122 375.408128 31.906115 378.875075 25.335603 384.566979 18.751227 390.293719 14.611732 398.098504 13.239086 408.173691 11.717007 418.089841 14.172667 427.875738 20.285629 437.49503 26.563436 447.097656 34.042875 455.818783 42.745528 463.800776L54.834345 473.875963 82.817167 497.476618C94.288215 507.073188 106.973225 517.764818 121.343616 529.478815L164.605768 565.261476C199.0035 593.796731 237.674767 626.265426 280.949238 662.634245L243.650616 812.356485C238.457375 831.584456 233.558374 850.374712 228.822682 869.018045 224.091602 887.51295 219.788805 904.475069 216.129966 919.833216 212.460339 935.158042 209.252879 948.221553 206.351995 959.343334L200.844477 980.246467C199.30391 986.559365 200.086518 992.872259 202.981243 998.883748 205.894451 1004.905836 210.473011 1010.160015 216.750812 1014.361544 222.869934 1018.732713 229.887212 1021.289375 237.529953 1022.49046 239.232276 1022.726738 240.917658 1022.816097 242.603034 1022.816097 248.487992 1022.816097 254.302085 1021.407514 260.012959 1018.73877 263.684127 1017.212042 270.86932 1013.633019 281.423734 1008.054712 292.118333 1002.356746 304.65237 995.132058 319.330877 986.565422 333.856865 977.99273 350.231532 968.833879 368.117489 958.764754 385.995745 948.842542 404.182118 938.771901 422.37311 928.845143 464.889626 905.391406 511.973914 878.643395 563.96182 848.735903L850.308188 1011.224791 866.23147 1017.065124C873.097769 1019.62027 878.440448 1020.821361 882.111616 1020.821361 893.131274 1020.821361 902.90924 1018.413128 911.779814 1013.923825 920.482468 1009.260339 923.864008 999.806141 921.559322 985.506708 920.795203 982.6547 919.428721 975.738988 917.285796 964.609633L909.017585 924.655734C905.652987 908.858353 902.151286 891.417615 898.624932 872.188124 894.953764 852.935916 890.837376 833.70794 886.546903 814.479964 876.918369 768.769034 866.062008 717.799373 853.538755 661.61643L1080.724342 462.746609C1090.201897 451.914117 1097.995617 442.897644 1104.265718 435.389722 1110.537354 427.875738 1113.6 419.154616 1113.6 409.226342 1113.6 398.571064 1110.686792 390.731443 1104.87424 385.625692 1098.90455 380.662313 1088.667494 376.466842 1074.147671 372.852982L735.047731 341.885266 612.260076 55.245302C610.737997 52.394808 608.75221 48.932408 606.151736 44.590024 603.558968 40.390011 600.494781 36.017331 596.818995 31.817313 593.147827 27.444634 588.58005 23.692948 583.225047 20.545587 577.706742 17.375508 571.285668 15.730642 563.955661 15.730642" p-id="6415" fill="#ffffff"></path></svg>