<?xml version="1.0" encoding="iso-8859-1"?>
<!-- Generator: Adobe Illustrator 18.1.1, SVG Export Plug-In . SVG Version: 6.00 Build 0)  -->
<svg xmlns="http://www.w3.org/2000/svg" xmlns:xlink="http://www.w3.org/1999/xlink" version="1.1" id="Capa_1" x="0px" y="0px" viewBox="0 0 28.368 28.368" style="enable-background:new 0 0 28.368 28.368;" xml:space="preserve" width="512px" height="512px">
<g>
	<g>
		<g>
			<path d="M4.999,15.291l-1.818-0.02C3.266,7.483,8.89,3.379,14.401,3.35c0.021,0,0.043,0,0.065,0     c7.191,0,10.596,6.123,10.717,11.828l-1.818,0.038C23.219,8.27,18.793,5.169,14.457,5.169c-0.016,0-0.031,0-0.046,0     C9.788,5.193,5.071,8.677,4.999,15.291z" fill="#ffffff"/>
			<path d="M5.001,14.942h-2.5c-1.376,0-2.501,1.125-2.501,2.5v4.863c0,1.375,1.125,2.5,2.501,2.5h2.5V14.942     z" fill="#ffffff"/>
			<path d="M23.366,15.156h2.501c1.375,0,2.501,1.125,2.501,2.5v4.862c0,1.375-1.125,2.5-2.501,2.5h-2.501     V15.156z" fill="#ffffff"/>
		</g>
	</g>
</g>
</svg>
