<?xml version="1.0" encoding="utf-8"?>
<!-- Generator: Adobe Illustrator 17.0.0, SVG Export Plug-In . SVG Version: 6.00 Build 0)  -->
<!DOCTYPE svg PUBLIC "-//W3C//DTD SVG 1.1//EN" "http://www.w3.org/Graphics/SVG/1.1/DTD/svg11.dtd">
<svg version="1.1" id="Capa_1" xmlns="http://www.w3.org/2000/svg" xmlns:xlink="http://www.w3.org/1999/xlink" x="0px" y="0px"
	 width="512px" height="512px" viewBox="0 0 512 512" enable-background="new 0 0 512 512" xml:space="preserve">
<g>
	<path fill="#999999" d="M475.713,72.003c-24.193-23.623-57.617-35.43-100.288-35.43c-11.809,0-23.86,2.047-36.143,6.14
		c-12.288,4.096-23.719,9.622-34.281,16.574c-10.576,6.95-19.664,13.477-27.289,19.57c-7.616,6.095-14.856,12.573-21.712,19.428
		c-6.859-6.855-14.097-13.333-21.714-19.428c-7.622-6.093-16.714-12.616-27.288-19.57c-10.572-6.955-22.001-12.477-34.286-16.574
		c-12.284-4.092-24.334-6.14-36.142-6.14c-42.668,0-76.094,11.81-100.284,35.43c-24.19,23.618-36.285,56.378-36.285,98.283
		c0,12.762,2.242,25.908,6.716,39.427c4.474,13.524,9.573,25.049,15.286,34.571c5.712,9.521,12.19,18.81,19.428,27.857
		c7.238,9.049,12.528,15.281,15.858,18.713c3.332,3.424,5.952,5.903,7.857,7.424L243.428,470.28c3.43,3.431,7.62,5.148,12.571,5.148
		c4.952,0,9.145-1.716,12.572-5.141l178-171.432c43.62-43.615,65.428-86.473,65.428-128.569
		C511.999,128.382,499.902,95.622,475.713,72.003z"/>
</g>
</svg>
