<?xml version="1.0" standalone="no"?><!DOCTYPE svg PUBLIC "-//W3C//DTD SVG 1.1//EN" "http://www.w3.org/Graphics/SVG/1.1/DTD/svg11.dtd"><svg t="1494135258898" class="icon" style="" viewBox="0 0 1024 1024" version="1.1" xmlns="http://www.w3.org/2000/svg" p-id="5767" xmlns:xlink="http://www.w3.org/1999/xlink" width="200" height="200"><defs><style type="text/css"></style></defs><path d="M511.32944 1022.674658C228.936996 1022.674658 0 793.75344 0 511.345218S228.936996 0 511.32944 0c282.424 0 511.360996 228.936996 511.360996 511.345218S793.75344 1022.674658 511.32944 1022.674658zM511.32944 833.860803c39.113357 0 70.811112-31.697755 70.811112-70.779557 0-39.113357-31.697755-70.811112-70.811112-70.811112-39.097579 0-70.779557 31.713533-70.779557 70.811112C440.534106 802.163048 472.231861 833.860803 511.32944 833.860803zM621.743024 200.410595c-231.871681-58.804148-315.226206 92.15858-315.226206 92.15858-13.458529 24.203263-18.554783 73.714242-18.554783 73.714242-4.749141 33.038875 18.554783 36.857121 18.554783 36.857121l92.726584 0c36.241784 5.001587 37.093789-18.412783 37.093789-18.412783 24.061263-106.57956 129.788817-73.73002 129.788817-73.73002 68.00265 23.177701 37.093789 92.142802 37.093789 92.142802-11.549406 34.569329-92.726584 92.142802-92.726584 92.142802-49.116531 43.231383-37.093789 110.58714-37.093789 110.58714-4.08647 35.610669 18.554783 36.857121 18.554783 36.857121l37.093789 0c42.915826-0.994006 37.093789-36.857121 37.093789-36.857121-7.242046-23.430147 18.554783-36.857121 18.554783-36.857121 108.472905-42.3636 148.327822-129.015701 148.327822-129.015701C802.415494 255.44383 621.743024 200.410595 621.743024 200.410595z" p-id="5768" fill="#ffffff"></path></svg>