<?xml version="1.0" standalone="no"?><!DOCTYPE svg PUBLIC "-//W3C//DTD SVG 1.1//EN" "http://www.w3.org/Graphics/SVG/1.1/DTD/svg11.dtd"><svg t="1494084205232" class="icon" style="" viewBox="0 0 1024 1024" version="1.1" xmlns="http://www.w3.org/2000/svg" p-id="8815" xmlns:xlink="http://www.w3.org/1999/xlink" width="200" height="200"><defs><style type="text/css"></style></defs><path d="M870.4 102.4h-213.333333C634.311111 42.666667 577.422222 0 512 0s-122.311111 42.666667-145.066667 102.4H153.6c-56.888889 0-102.4 45.511111-102.4 102.4v716.8c0 56.888889 45.511111 102.4 102.4 102.4h716.8c56.888889 0 102.4-45.511111 102.4-102.4V204.8c0-56.888889-45.511111-102.4-102.4-102.4zM512 102.4c28.444444 0 51.2 22.755556 51.2 51.2S540.444444 204.8 512 204.8s-51.2-22.755556-51.2-51.2 22.755556-51.2 51.2-51.2z m0 204.8c85.333333 0 153.6 68.266667 153.6 153.6 0 85.333333-68.266667 153.6-153.6 153.6s-153.6-68.266667-153.6-153.6c0-85.333333 68.266667-153.6 153.6-153.6z m307.2 614.4H204.8v-71.111111c0-102.4 204.8-159.288889 307.2-159.288889s307.2 56.888889 307.2 159.288889v71.111111z" fill="#999999" p-id="8816"></path></svg>