<?xml version="1.0" standalone="no"?><!DOCTYPE svg PUBLIC "-//W3C//DTD SVG 1.1//EN" "http://www.w3.org/Graphics/SVG/1.1/DTD/svg11.dtd"><svg t="1494084700101" class="icon" style="" viewBox="0 0 1024 1024" version="1.1" xmlns="http://www.w3.org/2000/svg" p-id="20387" xmlns:xlink="http://www.w3.org/1999/xlink" width="200" height="200"><defs><style type="text/css"></style></defs><path d="M921.835156 497.243925l0 418.383856c0 30.139437-24.434505 54.579059-54.575989 54.579059L594.368986 970.20684c-30.140461 0-54.577013-24.438599-54.577013-54.579059 0-30.142507 24.436552-54.579059 54.577013-54.579059l218.312144 0 0-727.703737-218.312144 0c-30.140461 0-54.577013-24.433482-54.577013-54.575989s24.436552-54.579059 54.577013-54.579059l272.89018 0c30.141484 0 54.575989 24.436552 54.575989 54.579059l0 418.380786c0 0.014326 0.004093 0.030699 0.004093 0.045025C921.838226 497.213225 921.835156 497.229598 921.835156 497.243925zM612.685143 457.827193c11.091616 9.988492 18.069541 24.459065 18.069541 40.564881 0 16.102746-6.977925 30.570249-18.069541 40.561811l0.002047 0.00307L430.761768 702.69004l-0.004093-0.00307c-9.66922 8.710382-22.468734 14.014178-36.507472 14.014178-30.142507 0-54.577013-24.433482-54.577013-54.579059 0-16.102746 6.975878-30.570249 18.069541-40.561811l-0.004093-0.00307 76.209706-68.589145L103.170754 552.968064l0 0c-30.144554 0-54.579059-24.436552-54.579059-54.575989 0-30.145577 24.434505-54.579059 54.579059-54.579059l0 0 330.778612 0-76.209706-68.587098 0.004093-0.005117c-11.093662-9.989515-18.069541-24.459065-18.069541-40.564881 0-30.139437 24.434505-54.575989 54.577013-54.575989 14.038738 0 26.837228 5.302773 36.507472 14.014178l0.004093-0.00307 181.924399 163.733085L612.685143 457.827193z" p-id="20388" fill="#999999"></path></svg>