<?xml version="1.0" encoding="utf-8"?>
<!-- Generator: Adobe Illustrator 17.0.0, SVG Export Plug-In . SVG Version: 6.00 Build 0)  -->
<!DOCTYPE svg PUBLIC "-//W3C//DTD SVG 1.1//EN" "http://www.w3.org/Graphics/SVG/1.1/DTD/svg11.dtd">
<svg version="1.1" id="图层_1" xmlns="http://www.w3.org/2000/svg" xmlns:xlink="http://www.w3.org/1999/xlink" x="0px" y="0px"
	 width="124.724px" height="124.724px" viewBox="207.778 174.266 124.724 124.724"
	 enable-background="new 207.778 174.266 124.724 124.724" xml:space="preserve">
<path fill="#fff" d="M281.626,179.541c14.309,6.275,22.806,23.023,15.84,39.36c-2.684,6.293-6.773,10.596-10.8,13.44
	c-3.969,2.62-8.363,3.809-11.76,5.52c-9.797,6.326-16.58,17.576-14.16,31.68c0.661,3.857,1.882,6.28,2.64,8.16
	c1.815,3.247,7.449,6.742,12.72,6.48c5.143-0.162,9.646-2.536,12.24-6.24c2.092-3.816,2.462-4.496,2.64-8.88
	c0.004-1.109-0.538-3.557-0.96-4.8c-0.425-1.253-1.027-2.991-0.96-4.8c-0.202-3.006,0.492-5.631,1.92-8.16
	c1.261-2.233,2.943-4.172,6.48-6c2.675-1.383,7.371-2.389,11.28-1.2c9.677,2.945,14.705,16.252,10.8,28.8
	c-3.2,10.283-10.998,17.21-21.12,20.64c-10.587,3.588-26.899,3.348-37.2-0.24c-24.511-8.536-49.05-35.233-39.84-73.68
	c5.493-18.122,17.103-31.428,32.4-38.64c5.565-2.284,10.172-3.798,15.6-3.84C272.963,177.113,276.942,177.487,281.626,179.541z"/>
</svg>
