<?xml version="1.0" standalone="no"?><!DOCTYPE svg PUBLIC "-//W3C//DTD SVG 1.1//EN" "http://www.w3.org/Graphics/SVG/1.1/DTD/svg11.dtd"><svg t="1494084781736" class="icon" style="" viewBox="0 0 1024 1024" version="1.1" xmlns="http://www.w3.org/2000/svg" p-id="21644" xmlns:xlink="http://www.w3.org/1999/xlink" width="200" height="200"><defs><style type="text/css"></style></defs><path d="M904.170844 498.392074c0 15.896038-6.886851 30.176276-17.83725 40.038902l0.005117 0.00307L706.757682 700.057073l-0.004093-0.00307c-9.5454 8.597819-22.177092 13.833053-36.036751 13.833053-29.751604 0-53.872978-24.118304-53.872978-53.875025 0-15.896038 6.887874-30.176276 17.83725-40.038902l-0.002047-0.00307 75.225285-67.706031L383.389854 552.264029c-0.002047 0-0.002047 0-0.002047 0-29.753651 0-53.874001-24.121374-53.874001-53.871955 0-29.756721 24.12035-53.875025 53.874001-53.875025 0 0 0 0 0.002047 0l326.513472 0-75.225285-67.702961 0.002047-0.005117c-10.949376-9.860579-17.83725-24.143886-17.83725-40.041972 0-29.751604 24.121374-53.871955 53.872978-53.871955 13.859659 0 26.491351 5.235235 36.036751 13.833053l0.004093-0.00307 179.582051 161.623028-0.005117 0.00307C897.283993 468.209658 904.170844 482.493989 904.170844 498.392074zM365.428783 139.228995 149.932778 139.228995l0 718.324112 215.496006 0c29.754674 0 53.874001 24.118304 53.874001 53.875025 0 29.751604-24.119327 53.871955-53.874001 53.871955L96.057753 965.300087c-29.753651 0-53.872978-24.121374-53.872978-53.871955L42.184775 85.35704c0-29.756721 24.119327-53.875025 53.872978-53.875025l269.37103 0c29.754674 0 53.874001 24.118304 53.874001 53.875025C419.303808 115.110691 395.183458 139.228995 365.428783 139.228995z" p-id="21645" fill="#999999"></path></svg>