<?xml version="1.0" standalone="no"?><!DOCTYPE svg PUBLIC "-//W3C//DTD SVG 1.1//EN" "http://www.w3.org/Graphics/SVG/1.1/DTD/svg11.dtd"><svg t="1493686067262" class="icon" style="" viewBox="0 0 1024 1024" version="1.1" xmlns="http://www.w3.org/2000/svg" p-id="7539" xmlns:xlink="http://www.w3.org/1999/xlink" width="200" height="200"><defs><style type="text/css"></style></defs><path d="M1006.730793 931.961524l-241.896814-240.233854c57.308182-72.850468 92.869956-163.545784 92.869956-263.387383 0-236.588132-191.752155-428.340287-428.340287-428.340287S1.02336 191.816115 1.02336 428.404247s191.752155 428.340287 428.340287 428.340287c97.794878 0 186.891193-34.090693 258.974141-89.224235l242.472455 240.809494c10.489444 10.425484 24.304809 15.670206 37.928295 15.670206 13.879325 0 27.630731-5.244722 38.184135-15.862086C1027.965522 986.967146 1027.773641 952.876452 1006.730793 931.961524zM108.668082 428.404247c0-176.849469 143.846096-320.695565 320.695565-320.695565 176.849469 0 320.695565 143.846096 320.695565 320.695565 0 176.849469-143.846096 320.695565-320.695565 320.695565C252.514179 749.099813 108.668082 605.253716 108.668082 428.404247z" p-id="7540" fill="#999999"></path></svg>