<?xml version="1.0" encoding="utf-8"?>
<!-- Generator: Adobe Illustrator 21.0.0, SVG Export Plug-In . SVG Version: 6.00 Build 0)  -->
<svg version="1.1" id="Capa_1" xmlns="http://www.w3.org/2000/svg" xmlns:xlink="http://www.w3.org/1999/xlink" x="0px" y="0px"
	 viewBox="0 0 512 512" style="enable-background:new 0 0 512 512;" xml:space="preserve">
<style type="text/css">
	.st0{fill:#FFFFFF;}
</style>
<g>
	<g>
		<path class="st0" d="M19.3,90.4h473.4c10.7,0,19.3-8.7,19.3-19.3s-8.7-19.3-19.3-19.3H19.3C8.7,51.8,0,60.4,0,71.1
			S8.7,90.4,19.3,90.4z"/>
		<path class="st0" d="M19.3,202.3h473.4c10.7,0,19.3-8.7,19.3-19.3s-8.7-19.3-19.3-19.3H19.3C8.7,163.7,0,172.3,0,183
			S8.7,202.3,19.3,202.3z"/>
	</g>
</g>
<g>
	<g>
		<path class="st0" d="M42.7,486.6h175.8c9.1,0,16.3-7.1,16.3-16.3V294.5c0-9.1-7.1-16.3-16.3-16.3H42.7c-9.1,0-16.3,7.1-16.3,16.3
			v175.8C26.4,479.1,33.9,486.6,42.7,486.6z M58.9,310.8h143.3v143.3H58.9C58.9,454.1,58.9,310.8,58.9,310.8z"/>
		<path class="st0" d="M471.3,278.2H295.5c-9.1,0-16.3,7.1-16.3,16.3v175.8c0,9.1,7.1,16.3,16.3,16.3h175.8
			c9.1,0,16.3-7.1,16.3-16.3V294.5C487.6,285.8,480.1,278.2,471.3,278.2z M455.1,454.1H311.8V310.8h143.3V454.1z"/>
	</g>
</g>
</svg>
