<?xml version="1.0" encoding="utf-8"?>
<!-- Generator: Adobe Illustrator 17.0.0, SVG Export Plug-In . SVG Version: 6.00 Build 0)  -->
<!DOCTYPE svg PUBLIC "-//W3C//DTD SVG 1.1//EN" "http://www.w3.org/Graphics/SVG/1.1/DTD/svg11.dtd">
<svg version="1.1" id="Capa_1" xmlns="http://www.w3.org/2000/svg" xmlns:xlink="http://www.w3.org/1999/xlink" x="0px" y="0px"
	 width="512px" height="512px" viewBox="0 0 512 512" enable-background="new 0 0 512 512" xml:space="preserve">
<g>
	<g id="keyboard-control">
		<path fill="#fff" d="M206,406c0,27.5,22.5,50,50,50s50-22.5,50-50s-22.5-50-50-50S206,378.5,206,406z M206,106
			c0,27.5,22.5,50,50,50s50-22.5,50-50s-22.5-50-50-50S206,78.5,206,106z M206,256c0,27.5,22.5,50,50,50s50-22.5,50-50
			s-22.5-50-50-50S206,228.5,206,256z"/>
	</g>
</g>
</svg>
