<?xml version="1.0" encoding="utf-8"?>
<!-- Generator: Adobe Illustrator 17.0.0, SVG Export Plug-In . SVG Version: 6.00 Build 0)  -->
<!DOCTYPE svg PUBLIC "-//W3C//DTD SVG 1.1//EN" "http://www.w3.org/Graphics/SVG/1.1/DTD/svg11.dtd">
<svg version="1.1" id="Capa_1" xmlns="http://www.w3.org/2000/svg" xmlns:xlink="http://www.w3.org/1999/xlink" x="0px" y="0px"
	 width="512px" height="512px" viewBox="0 0 512 512" enable-background="new 0 0 512 512" xml:space="preserve">
<g>
	<path fill="#999999" d="M500.964,420.183c-4.299,0-8.31-2.629-10.095-6.717l0,0c-1.343-3.032-32.954-74.102-151.295-88.094
		c-24.701-2.956-54.296-4.568-90.128-4.837v88.612c0,4.011-2.207,7.792-5.815,9.711c-3.608,1.881-7.946,1.651-11.324-0.557
		L4.798,265.088C1.804,263.015,0,259.637,0,256.01c0-3.762,1.804-7.14,4.798-9.155L232.384,93.621
		c3.359-2.169,7.677-2.437,11.285-0.518c3.627,1.881,5.873,5.623,5.873,9.673v82.317C298.963,191.542,512,229.735,512,409.185
		c0,5.182-3.685,9.711-8.867,10.805C502.461,420.125,501.674,420.164,500.964,420.183z"/>
</g>
</svg>
