<?xml version="1.0" encoding="utf-8"?>
<!-- Generator: Adobe Illustrator 17.0.0, SVG Export Plug-In . SVG Version: 6.00 Build 0)  -->
<!DOCTYPE svg PUBLIC "-//W3C//DTD SVG 1.1//EN" "http://www.w3.org/Graphics/SVG/1.1/DTD/svg11.dtd">
<svg version="1.1" id="Capa_1" xmlns="http://www.w3.org/2000/svg" xmlns:xlink="http://www.w3.org/1999/xlink" x="0px" y="0px"
	 width="512px" height="512px" viewBox="0 0 512 512" enable-background="new 0 0 512 512" xml:space="preserve">
<path fill="#FFFFFF" d="M436.17,178.324c-7.533-4.696-17.438-2.399-22.131,5.132c-4.693,7.531-2.396,17.436,5.132,22.129
	c17.519,10.925,27.975,29.772,27.975,50.417c0,20.645-10.457,39.492-27.975,50.417L155.703,470.696
	c-18.587,11.589-41.117,12.159-60.266,1.534c-19.152-10.628-30.585-30.05-30.585-51.951V91.721
	c0-21.901,11.434-41.323,30.585-51.951c19.149-10.625,41.679-10.055,60.266,1.534l153.374,95.632
	c7.531,4.69,17.436,2.396,22.131-5.132c4.693-7.528,2.396-17.436-5.132-22.129l-153.374-95.63
	C144.068-3.807,109.36-4.693,79.848,11.683C50.345,28.056,32.73,57.977,32.73,91.721v328.555c0,33.744,17.615,63.666,47.122,80.039
	c14.055,7.798,29.284,11.683,44.482,11.683c16.707,0,33.375-4.696,48.369-14.046L436.17,333.673
	c26.99-16.831,43.103-45.866,43.103-77.675S463.16,195.155,436.17,178.324z"/>
</svg>
