<?xml version="1.0" encoding="utf-8"?>
<!-- Generator: Adobe Illustrator 17.0.0, SVG Export Plug-In . SVG Version: 6.00 Build 0)  -->
<!DOCTYPE svg PUBLIC "-//W3C//DTD SVG 1.1//EN" "http://www.w3.org/Graphics/SVG/1.1/DTD/svg11.dtd">
<svg version="1.1" id="图层_1" xmlns="http://www.w3.org/2000/svg" xmlns:xlink="http://www.w3.org/1999/xlink" x="0px" y="0px"
	 width="512px" height="512px" viewBox="0 0 512 512" enable-background="new 0 0 512 512" xml:space="preserve">
<g>
	<path fill="#FFFFFF" d="M485.805,204.8c0-98.431-80.571-179.002-179.002-179.002c-98.828,0-179.002,80.174-179.002,179.002
		c0,43.262,15.876,83.349,41.674,114.307L30.56,458.023c-6.35,6.35-6.35,16.67,0,23.02c3.175,3.175,7.144,4.763,11.51,4.763
		s8.335-1.588,11.51-4.763l138.915-138.915c30.958,26.195,70.648,41.674,114.307,41.674
		C405.233,383.802,485.804,303.628,485.805,204.8z M453.258,204.8c0,80.571-65.488,146.456-146.456,146.456
		S160.346,285.767,160.346,204.8c0-80.571,65.489-146.456,146.456-146.456C387.373,58.344,453.258,124.229,453.258,204.8z"/>
</g>
</svg>
