<?xml version="1.0" encoding="utf-8"?>
<!-- Generator: Adobe Illustrator 17.0.0, SVG Export Plug-In . SVG Version: 6.00 Build 0)  -->
<!DOCTYPE svg PUBLIC "-//W3C//DTD SVG 1.1//EN" "http://www.w3.org/Graphics/SVG/1.1/DTD/svg11.dtd">
<svg version="1.1" id="图层_1" xmlns="http://www.w3.org/2000/svg" xmlns:xlink="http://www.w3.org/1999/xlink" x="0px" y="0px"
	 width="18px" height="18px" viewBox="0 1 18 18" enable-background="new 0 1 18 18" xml:space="preserve">
<g id="Global_Nav_Small_Icons">
</g>
<g id="Global_Nav_Small_1_">
</g>
<g id="Bag">
	<path id="Sign_In" fill="#666666" d="M12.227,14.564c-0.367-0.137-0.744-0.24-1.127-0.318c-0.524-0.107-0.71-0.364-0.739-0.939
		c-0.003-0.084-0.108-0.779-0.023-0.825c0.347-0.181,0.402-0.759,0.436-1.113c0.024-0.26,0.154-0.376,0.269-0.591
		c0.126-0.231,0.246-0.559,0.313-0.815c0.052-0.185,0.141-0.495,0.104-0.688C11.427,9.094,11.3,8.929,11.3,8.74
		c0-0.244,0.032-0.443,0.058-0.687c0.04-0.377,0.031-0.761-0.039-1.134c-0.039-0.194-0.12-0.402-0.219-0.566
		c-0.132-0.224-0.325-0.409-0.538-0.548C10.114,5.514,9.505,5.311,8.941,5.32C8.375,5.31,7.764,5.513,7.316,5.804
		C7.105,5.943,6.913,6.129,6.778,6.353C6.682,6.517,6.6,6.725,6.563,6.918C6.492,7.291,6.484,7.675,6.524,8.052
		C6.55,8.295,6.581,8.494,6.581,8.738c0,0.189-0.128,0.354-0.161,0.535C6.387,9.467,6.477,9.777,6.526,9.962
		c0.066,0.257,0.188,0.584,0.313,0.815c0.115,0.215,0.245,0.331,0.268,0.591c0.032,0.354,0.091,0.933,0.437,1.113
		c0.083,0.046-0.021,0.741-0.026,0.825c-0.029,0.575-0.214,0.832-0.738,0.939c-0.383,0.078-0.761,0.182-1.128,0.318
		c-0.083,0.03-0.723,0.534-0.723,0.607c0,0,1.438,1.45,4.012,1.453c2.571-0.003,4.224-1.58,4.224-1.58
		C13.086,15.001,12.311,14.595,12.227,14.564 M9,3.438c3.624,0,6.562,2.938,6.562,6.562s-2.998,6.562-6.621,6.562
		c-3.625,0-6.504-2.938-6.504-6.562C2.438,6.375,5.375,3.438,9,3.438 M9,2.5c-4.136,0-7.5,3.364-7.5,7.5s3.338,7.5,7.441,7.5
		c4.168,0,7.559-3.364,7.559-7.5S13.136,2.5,9,2.5L9,2.5z"/>
</g>
<g id="Global_Nav_Large_Icons">
</g>
<g id="Global_Nav_Large_1_">
</g>
<g id="Guides">
</g>
<g id="NOTES">
</g>
</svg>
