<?xml version="1.0" encoding="iso-8859-1"?>
<!-- Generator: Adobe Illustrator 19.1.0, SVG Export Plug-In . SVG Version: 6.00 Build 0)  -->
<svg xmlns="http://www.w3.org/2000/svg" xmlns:xlink="http://www.w3.org/1999/xlink" version="1.1" id="Capa_1" x="0px" y="0px" viewBox="0 0 48 48" style="enable-background:new 0 0 48 48;" xml:space="preserve" width="512px" height="512px">
<g id="system">
	<g>
		<path d="M37.001,25.441c-3.622,0-6.825,1.763-8.83,4.472l-11.455-5.798c0.809-1.354,1.283-2.933,1.283-4.627    c0-1.337-0.298-2.601-0.818-3.742l13.578-5.06c1.155,2.284,3.513,3.853,6.241,3.853c3.866,0,7-3.142,7-7.018    c0-3.876-3.134-7.018-7-7.018s-7,3.142-7,7.018c0,0.432,0.045,0.853,0.119,1.264l-13.99,5.214    c-1.645-2.145-4.223-3.533-7.131-3.533c-4.97,0-9,4.04-9,9.023c0,4.983,4.029,9.023,9,9.023c2.549,0,4.845-1.067,6.483-2.775    l11.645,5.895c-0.714,1.462-1.127,3.1-1.127,4.838c0,6.091,4.925,11.028,11,11.028C43.076,47.498,48,42.56,48,36.469    C48,30.379,43.076,25.441,37.001,25.441z M37.001,2.508c2.757,0,5,2.249,5,5.013c0,2.764-2.243,5.013-5,5.013s-5-2.249-5-5.013    C32.001,4.757,34.244,2.508,37.001,2.508z M9,26.506c-3.86,0-7-3.148-7-7.018c0-3.87,3.14-7.018,7-7.018s7,3.148,7,7.018    C15.999,23.358,12.859,26.506,9,26.506z M37.001,45.492c-4.962,0-9-4.048-9-9.023c0-4.975,4.037-9.023,9-9.023    c4.962,0,9,4.048,9,9.023C46,41.445,41.963,45.492,37.001,45.492z" fill="#ffffff"/>
	</g>
</g>
</svg>
