<?xml version="1.0" encoding="utf-8"?>
<!-- Generator: Adobe Illustrator 17.0.0, SVG Export Plug-In . SVG Version: 6.00 Build 0)  -->
<!DOCTYPE svg PUBLIC "-//W3C//DTD SVG 1.1//EN" "http://www.w3.org/Graphics/SVG/1.1/DTD/svg11.dtd">
<svg version="1.1" id="Capa_1" xmlns="http://www.w3.org/2000/svg" xmlns:xlink="http://www.w3.org/1999/xlink" x="0px" y="0px"
	 width="512px" height="512px" viewBox="0 0 512 512" enable-background="new 0 0 512 512" xml:space="preserve">
<path fill="#22aacc" d="M509.148,309.375c0-23.809-19.302-43.113-43.113-43.113h-2.057c12.246-7.605,20.404-21.169,20.404-36.645
	c0-23.809-19.302-43.113-43.113-43.113h-160.6c29.894-55.33,40.58-96.103,50.727-130.812c5.842-19.923-3.375-41.739-22.683-51.081
	C287.205-5.794,263.724,1.6,250.93,24.713c-28.785,52.003-73.875,116.789-144.281,188.968
	c-12.382,12.693-20.931,28.128-24.808,44.954H2.852v210.247h93.275c17.55,25.988,47.276,43.111,80.928,43.111
	c5.923,0,201.683,0.002,220.002,0.002c23.809,0,43.113-19.302,43.113-43.113c0-15.475-8.158-29.04-20.404-36.645h13.936
	c23.809,0,43.113-19.302,43.113-43.113c0-15.475-8.158-29.04-20.404-36.645h9.626C489.845,352.488,509.148,333.184,509.148,309.375z
	"/>
</svg>
