<?xml version="1.0" encoding="utf-8"?>
<!-- Generator: Adobe Illustrator 17.0.0, SVG Export Plug-In . SVG Version: 6.00 Build 0)  -->
<!DOCTYPE svg PUBLIC "-//W3C//DTD SVG 1.1//EN" "http://www.w3.org/Graphics/SVG/1.1/DTD/svg11.dtd">
<svg version="1.1" id="图层_1" xmlns="http://www.w3.org/2000/svg" xmlns:xlink="http://www.w3.org/1999/xlink" x="0px" y="0px"
	 width="153px" height="153px" viewBox="0 0 153 153" enable-background="new 0 0 153 153" xml:space="preserve">
<pattern  x="67" y="87" width="200" height="200" patternUnits="userSpaceOnUse" id="SVGID_2_" viewBox="0 -200 200 200" overflow="visible">
	<g>
		<polygon fill="none" points="0,0 200,0 200,-200 0,-200 		"/>
		<g>
			<polygon fill="none" points="0,-200 200,-200 200,0 0,0 			"/>
		</g>
	</g>
</pattern>
<g>
	<path fill="#FFFFFF" d="M5.998,119h18c0,0-0.086-6.153,1-12c1.281-6.899,4-10,4-10s9.642,3.988,19,5c9.14,0.988,18-1,18-1
		s1.36,3.158,2,7c0.834,5.003,1,11,1,11h18c0,0-0.144-12.413,5-22c5.815-10.836,17-19,17-19s9.861,4.32,19,5c9.597,0.714,16-2,16-2
		v-8c0,0,8.551-1.733,9-20c0.22-8.949-7-17-7-17s2.214,9.598,0,18c-1.918,7.277-8,11-8,11s0.272-2.457,0-6c-0.222-2.89-1-7-1-7
		s-1.929,3.411-4,6c-1.923,2.404-4,4-4,4s-3.768-1.114-7-3c-2.724-1.589-5-4-5-4s2.334-1.62,4-4c1.826-2.609,3-6,3-6
		s-4.865,0.553-8,2c-3.358,1.55-6,4-6,4s-4.231-4.782-8-10c-2.426-3.359-5-7-5-7s-15.895,14.206-40,18c-19.876,3.128-38-6-38-6l-5,7
		c0,0-3.889,2.334-7,5c-3.817,3.271-7,7-7,7s2.743-0.997,5-2c2.243-0.997,4-2,4-2s-6.28,15.073-7,29
		C1.221,105.032,5.998,119,5.998,119z"/>
	<pattern  id="SVGID_1_" xlink:href="#SVGID_2_" patternTransform="matrix(1.764 0 0 1.764 18451.3359 34654.5547)">
	</pattern>
	<path fill="url(#SVGID_1_)" d="M5.998,119h18c0,0-0.086-6.153,1-12c1.281-6.899,4-10,4-10s9.642,3.988,19,5c9.14,0.988,18-1,18-1
		s1.36,3.158,2,7c0.834,5.003,1,11,1,11h18c0,0-0.144-12.413,5-22c5.815-10.836,17-19,17-19s9.861,4.32,19,5c9.597,0.714,16-2,16-2
		v-8c0,0,8.551-1.733,9-20c0.22-8.949-7-17-7-17s2.214,9.598,0,18c-1.918,7.277-8,11-8,11s0.272-2.457,0-6c-0.222-2.89-1-7-1-7
		s-1.929,3.411-4,6c-1.923,2.404-4,4-4,4s-3.768-1.114-7-3c-2.724-1.589-5-4-5-4s2.334-1.62,4-4c1.826-2.609,3-6,3-6
		s-4.865,0.553-8,2c-3.358,1.55-6,4-6,4s-4.231-4.782-8-10c-2.426-3.359-5-7-5-7s-15.895,14.206-40,18c-19.876,3.128-38-6-38-6l-5,7
		c0,0-3.889,2.334-7,5c-3.817,3.271-7,7-7,7s2.743-0.997,5-2c2.243-0.997,4-2,4-2s-6.28,15.073-7,29
		C1.221,105.032,5.998,119,5.998,119z"/>
</g>
</svg>
